{"title":"Unreal Estate - S01E03 - Designer Dreams","uid":16007388,"size":1067011798,"categoryP":"video","categoryS":"tv_shows","magnet":"?xt=urn:btih:58f3da9ff55a6b3ffd48b149de1088d3e96b2b3b&amp;dn=Unreal+Estate+-+S01E03+-+Designer+Dreams&amp;tr=udp%3A%2F%2Ftracker.leechers-paradise.org%3A6969&amp;tr=udp%3A%2F%2Fzer0day.ch%3A1337&amp;tr=udp%3A%2F%2Fopen.demonii.com%3A1337&amp;tr=udp%3A%2F%2Ftracker.coppersurfer.tk%3A6969&amp;tr=udp%3A%2F%2Fexodus.desync.com%3A6969","seeders":5,"leechers":3,"uploader":"Bullrout","files":1,"time":1476197513,"description":"Unreal Estate - S01E03 - Designer Dreams\r\n\r\nCam steps into Perth's golden triangle to spend the day with Million Dollar Makeover interior designer Sasha deBretton, while Kate crosses the ditch to meet the design duo who put together the famous Bradley Mansion in Coatesville.\r\n\r\n\r\nComplete name                            : Unreal Estate - S01E03 - Designer Dreams.mkv\r\nFormat                                   : Matroska\r\nFormat version                           : Version 4 / Version 2\r\nFile size                                : 1 018 MiB\r\nDuration                                 : 43 min 5 s\r\nOverall bit rate mode                    : Variable\r\nOverall bit rate                         : 3 302 kb/s\r\nEncoded date                             : UTC 2016-10-11 12:32:15\r\nWriting application                      : mkvmerge v9.4.2 ('So High') 64bit\r\nWriting library                          : libebml v1.3.4 + libmatroska v1.4.5\r\n\r\nVideo\r\nID                                       : 2\r\nFormat                                   : AVC\r\nFormat/Info                              : Advanced Video Codec\r\nFormat profile                           :   \r\nFormat settings, CABAC                   : Yes\r\nFormat settings, ReFrames                : 3 frames\r\nCodec ID                                 : V_MPEG4/ISO/AVC\r\nDuration                                 : 43 min 5 s\r\nBit rate mode                            : Variable\r\nBit rate                                 : 2 916 kb/s\r\nMaximum bit rate                         : 3 000 kb/s\r\nWidth                                    : 1 280 pixels\r\nHeight                                   : 720 pixels\r\nDisplay aspect ratio                     : 16:9\r\nFrame rate mode                          : Constant\r\nFrame rate                               : 25.000 FPS\r\nStandard                                 : PAL\r\nColor space                              : YUV\r\nChroma subsampling                       : 4:2:0\r\nBit depth                                : 8 bits\r\nScan type                                : Progressive\r\nBits/(Pixel*Frame)                       : 0.127\r\nStream size                              : 899 MiB (88%)\r\nWriting library                          : x264 core 112\r\nDefault                                  : Yes\r\nForced                                   : No\r\nColor range                              : Limited\r\nColor primaries                          : BT.709\r\nTransfer characteristics                 : BT.709\r\nMatrix coefficients                      : BT.709\r\n\r\nAudio\r\nID                                       : 1\r\nFormat                                   : AC-3\r\nFormat/Info                              : Audio Coding 3\r\nMode extension                           : CM (complete main)\r\nFormat settings, Endianness              : Big\r\nCodec ID                                 : A_AC3\r\nDuration                                 : 43 min 5 s\r\nBit rate mode                            : Constant\r\nBit rate                                 : 384 kb/s\r\nChannel(s)                               : 6 channels\r\nChannel positions                        : Front: L C R, Side: L R, LFE\r\nSampling rate                            : 48.0 kHz\r\nFrame rate                               : 31.250 FPS (1536 spf)\r\nCompression mode                         : Lossy\r\nStream size                              : 118 MiB (12%)\r\nDefault                                  : Yes\r\nForced                                   : No","torrent":{"xt":"urn:btih:58f3da9ff55a6b3ffd48b149de1088d3e96b2b3b","amp;dn":"Unreal+Estate+-+S01E03+-+Designer+Dreams","amp;tr":["udp%3A%2F%2Ftracker.leechers-paradise.org%3A6969","udp%3A%2F%2Fzer0day.ch%3A1337","udp%3A%2F%2Fopen.demonii.com%3A1337","udp%3A%2F%2Ftracker.coppersurfer.tk%3A6969","udp%3A%2F%2Fexodus.desync.com%3A6969"],"infoHash":"58f3da9ff55a6b3ffd48b149de1088d3e96b2b3b","infoHashBuffer":{"type":"Buffer","data":[88,243,218,159,245,90,107,63,253,72,177,73,222,16,136,211,233,107,43,59]},"announce":[],"urlList":[]}}